<?xml version="1.0" encoding="UTF-8" standalone="no"?>
<!DOCTYPE svg PUBLIC "-//W3C//DTD SVG 1.1//EN"
 "http://www.w3.org/Graphics/SVG/1.1/DTD/svg11.dtd">
<!-- Generated by graphviz version 12.2.1 (20241206.2353)
 -->
<!-- Title: modelo Pages: 1 -->
<svg width="1259pt" height="678pt"
 viewBox="0.00 0.00 1259.35 677.85" xmlns="http://www.w3.org/2000/svg" xmlns:xlink="http://www.w3.org/1999/xlink">
<g id="graph0" class="graph" transform="scale(1 1) rotate(0) translate(28.8 649.05)">
<title>modelo</title>
<polygon fill="#ffffff" stroke="none" points="-28.8,28.8 -28.8,-649.05 1230.55,-649.05 1230.55,28.8 -28.8,28.8"/>
<text text-anchor="middle" x="600.88" y="-597.25" font-family="Arial" font-size="20.00">Participación y juego · modelo lógico 1.2</text>
<!-- activities -->
<g id="node1" class="node">
<title>activities</title>
<polygon fill="#63716b" stroke="none" points="0,-538.38 0,-572.12 165,-572.12 165,-538.38 0,-538.38"/>
<polygon fill="none" stroke="#cddad4" points="0,-538.38 0,-572.12 165,-572.12 165,-538.38 0,-538.38"/>
<text text-anchor="start" x="53.62" y="-550.83" font-family="Arial" font-weight="bold" font-size="14.00" fill="white">activities</text>
<polygon fill="none" stroke="#cddad4" points="0,-504.62 0,-538.38 165,-538.38 165,-504.62 0,-504.62"/>
<text text-anchor="start" x="9" y="-516.08" font-family="Arial" font-size="14.00">PK: id</text>
<polygon fill="none" stroke="#cddad4" points="0,-470.88 0,-504.62 165,-504.62 165,-470.88 0,-470.88"/>
<text text-anchor="start" x="9" y="-482.32" font-family="Arial" font-size="14.00" fill="#63716b">referencia a otro módulo</text>
</g>
<!-- teams -->
<g id="node11" class="node">
<title>teams</title>
<polygon fill="#087f5b" stroke="none" points="244,-555.25 244,-589 420.25,-589 420.25,-555.25 244,-555.25"/>
<polygon fill="none" stroke="#cddad4" points="244,-555.25 244,-589 420.25,-589 420.25,-555.25 244,-555.25"/>
<text text-anchor="start" x="312.25" y="-567.7" font-family="Arial" font-weight="bold" font-size="14.00" fill="white">teams</text>
<polygon fill="none" stroke="#cddad4" points="244,-521.5 244,-555.25 420.25,-555.25 420.25,-521.5 244,-521.5"/>
<text text-anchor="start" x="253" y="-532.95" font-family="Arial" font-size="14.00">PK: id</text>
<polygon fill="none" stroke="#cddad4" points="244,-487.75 244,-521.5 420.25,-521.5 420.25,-487.75 244,-487.75"/>
<text text-anchor="start" x="253" y="-499.2" font-family="Arial" font-size="14.00">FK activity_id</text>
<polygon fill="none" stroke="#cddad4" points="244,-454 244,-487.75 420.25,-487.75 420.25,-454 244,-454"/>
<text text-anchor="start" x="253" y="-465.45" font-family="Arial" font-size="14.00" fill="#63716b">3 campos · ver diccionario</text>
</g>
<!-- activities&#45;&gt;teams -->
<g id="edge7" class="edge">
<title>activities&#45;&gt;teams</title>
<path fill="none" stroke="#668076" d="M164.92,-521.5C190.3,-521.5 218.37,-521.5 244.11,-521.5"/>
<text text-anchor="middle" x="229.61" y="-524.76" font-family="Arial" font-size="10.00">0..N</text>
<text text-anchor="middle" x="179.43" y="-511.24" font-family="Arial" font-size="10.00">1</text>
</g>
<!-- attempt_questions -->
<g id="node2" class="node">
<title>attempt_questions</title>
<polygon fill="#087f5b" stroke="none" points="770.25,-363 770.25,-396.75 946.5,-396.75 946.5,-363 770.25,-363"/>
<polygon fill="none" stroke="#cddad4" points="770.25,-363 770.25,-396.75 946.5,-396.75 946.5,-363 770.25,-363"/>
<text text-anchor="start" x="798" y="-375.45" font-family="Arial" font-weight="bold" font-size="14.00" fill="white">attempt_questions</text>
<polygon fill="none" stroke="#cddad4" points="770.25,-329.25 770.25,-363 946.5,-363 946.5,-329.25 770.25,-329.25"/>
<text text-anchor="start" x="779.25" y="-340.7" font-family="Arial" font-size="14.00">PK: id</text>
<polygon fill="none" stroke="#cddad4" points="770.25,-295.5 770.25,-329.25 946.5,-329.25 946.5,-295.5 770.25,-295.5"/>
<text text-anchor="start" x="779.25" y="-306.95" font-family="Arial" font-size="14.00">FK attempt_id</text>
<polygon fill="none" stroke="#cddad4" points="770.25,-261.75 770.25,-295.5 946.5,-295.5 946.5,-261.75 770.25,-261.75"/>
<text text-anchor="start" x="779.25" y="-273.2" font-family="Arial" font-size="14.00">FK version_id</text>
<polygon fill="none" stroke="#cddad4" points="770.25,-228 770.25,-261.75 946.5,-261.75 946.5,-228 770.25,-228"/>
<text text-anchor="start" x="779.25" y="-239.45" font-family="Arial" font-size="14.00">FK question_key</text>
<polygon fill="none" stroke="#cddad4" points="770.25,-194.25 770.25,-228 946.5,-228 946.5,-194.25 770.25,-194.25"/>
<text text-anchor="start" x="779.25" y="-205.7" font-family="Arial" font-size="14.00" fill="#63716b">6 campos · ver diccionario</text>
</g>
<!-- powerup_uses -->
<g id="node6" class="node">
<title>powerup_uses</title>
<polygon fill="#087f5b" stroke="none" points="1025.5,-101.25 1025.5,-135 1201.75,-135 1201.75,-101.25 1025.5,-101.25"/>
<polygon fill="none" stroke="#cddad4" points="1025.5,-101.25 1025.5,-135 1201.75,-135 1201.75,-101.25 1025.5,-101.25"/>
<text text-anchor="start" x="1066" y="-113.7" font-family="Arial" font-weight="bold" font-size="14.00" fill="white">powerup_uses</text>
<polygon fill="none" stroke="#cddad4" points="1025.5,-67.5 1025.5,-101.25 1201.75,-101.25 1201.75,-67.5 1025.5,-67.5"/>
<text text-anchor="start" x="1034.5" y="-78.95" font-family="Arial" font-size="14.00">PK: participant_id, kind</text>
<polygon fill="none" stroke="#cddad4" points="1025.5,-33.75 1025.5,-67.5 1201.75,-67.5 1201.75,-33.75 1025.5,-33.75"/>
<text text-anchor="start" x="1034.5" y="-45.2" font-family="Arial" font-size="14.00">FK attempt_question_id</text>
<polygon fill="none" stroke="#cddad4" points="1025.5,0 1025.5,-33.75 1201.75,-33.75 1201.75,0 1025.5,0"/>
<text text-anchor="start" x="1034.5" y="-11.45" font-family="Arial" font-size="14.00" fill="#63716b">5 campos · ver diccionario</text>
</g>
<!-- attempt_questions&#45;&gt;powerup_uses -->
<g id="edge11" class="edge">
<title>attempt_questions&#45;&gt;powerup_uses</title>
<path fill="none" stroke="#668076" d="M946.17,-217.35C975.96,-190.54 1009.01,-160.78 1037.77,-134.9"/>
<text text-anchor="middle" x="1031.51" y="-146.12" font-family="Arial" font-size="10.00">0..N</text>
<text text-anchor="middle" x="952.43" y="-199.13" font-family="Arial" font-size="10.00">1</text>
</g>
<!-- responses -->
<g id="node9" class="node">
<title>responses</title>
<polygon fill="#087f5b" stroke="none" points="1025.5,-312.38 1025.5,-346.12 1201.75,-346.12 1201.75,-312.38 1025.5,-312.38"/>
<polygon fill="none" stroke="#cddad4" points="1025.5,-312.38 1025.5,-346.12 1201.75,-346.12 1201.75,-312.38 1025.5,-312.38"/>
<text text-anchor="start" x="1079.88" y="-324.82" font-family="Arial" font-weight="bold" font-size="14.00" fill="white">responses</text>
<polygon fill="none" stroke="#cddad4" points="1025.5,-278.62 1025.5,-312.38 1201.75,-312.38 1201.75,-278.62 1025.5,-278.62"/>
<text text-anchor="start" x="1034.5" y="-290.07" font-family="Arial" font-size="14.00">PK: attempt_question_id</text>
<polygon fill="none" stroke="#cddad4" points="1025.5,-244.88 1025.5,-278.62 1201.75,-278.62 1201.75,-244.88 1025.5,-244.88"/>
<text text-anchor="start" x="1034.5" y="-256.32" font-family="Arial" font-size="14.00" fill="#63716b">5 campos · ver diccionario</text>
</g>
<!-- attempt_questions&#45;&gt;responses -->
<g id="edge4" class="edge">
<title>attempt_questions&#45;&gt;responses</title>
<path fill="none" stroke="#668076" d="M946.17,-295.5C971.81,-295.5 999.86,-295.5 1025.51,-295.5"/>
<text text-anchor="middle" x="1011.01" y="-298.76" font-family="Arial" font-size="10.00">0..1</text>
<text text-anchor="middle" x="960.68" y="-285.24" font-family="Arial" font-size="10.00">1</text>
</g>
<!-- attempt_resolutions -->
<g id="node3" class="node">
<title>attempt_resolutions</title>
<polygon fill="#087f5b" stroke="none" points="770.25,-131.25 770.25,-165 946.5,-165 946.5,-131.25 770.25,-131.25"/>
<polygon fill="none" stroke="#cddad4" points="770.25,-131.25 770.25,-165 946.5,-165 946.5,-131.25 770.25,-131.25"/>
<text text-anchor="start" x="793.5" y="-143.7" font-family="Arial" font-weight="bold" font-size="14.00" fill="white">attempt_resolutions</text>
<polygon fill="none" stroke="#cddad4" points="770.25,-97.5 770.25,-131.25 946.5,-131.25 946.5,-97.5 770.25,-97.5"/>
<text text-anchor="start" x="779.25" y="-108.95" font-family="Arial" font-size="14.00">PK: attempt_id</text>
<polygon fill="none" stroke="#cddad4" points="770.25,-63.75 770.25,-97.5 946.5,-97.5 946.5,-63.75 770.25,-63.75"/>
<text text-anchor="start" x="779.25" y="-75.2" font-family="Arial" font-size="14.00">FK actor_id</text>
<polygon fill="none" stroke="#cddad4" points="770.25,-30 770.25,-63.75 946.5,-63.75 946.5,-30 770.25,-30"/>
<text text-anchor="start" x="779.25" y="-41.45" font-family="Arial" font-size="14.00" fill="#63716b">5 campos · ver diccionario</text>
</g>
<!-- attempts -->
<g id="node4" class="node">
<title>attempts</title>
<polygon fill="#087f5b" stroke="none" points="507.12,-261.25 507.12,-295 683.38,-295 683.38,-261.25 507.12,-261.25"/>
<polygon fill="none" stroke="#cddad4" points="507.12,-261.25 507.12,-295 683.38,-295 683.38,-261.25 507.12,-261.25"/>
<text text-anchor="start" x="566.75" y="-273.7" font-family="Arial" font-weight="bold" font-size="14.00" fill="white">attempts</text>
<polygon fill="none" stroke="#cddad4" points="507.12,-227.5 507.12,-261.25 683.38,-261.25 683.38,-227.5 507.12,-227.5"/>
<text text-anchor="start" x="516.12" y="-238.95" font-family="Arial" font-size="14.00">PK: id</text>
<polygon fill="none" stroke="#cddad4" points="507.12,-193.75 507.12,-227.5 683.38,-227.5 683.38,-193.75 507.12,-193.75"/>
<text text-anchor="start" x="516.12" y="-205.2" font-family="Arial" font-size="14.00">FK participant_id</text>
<polygon fill="none" stroke="#cddad4" points="507.12,-160 507.12,-193.75 683.38,-193.75 683.38,-160 507.12,-160"/>
<text text-anchor="start" x="516.12" y="-171.45" font-family="Arial" font-size="14.00" fill="#63716b">7 campos · ver diccionario</text>
</g>
<!-- attempts&#45;&gt;attempt_questions -->
<g id="edge2" class="edge">
<title>attempts&#45;&gt;attempt_questions</title>
<path fill="none" stroke="#668076" d="M683.2,-250.14C711.24,-257.45 742.31,-265.54 770.36,-272.84"/>
<text text-anchor="middle" x="754.62" y="-272.23" font-family="Arial" font-size="10.00">0..N</text>
<text text-anchor="middle" x="698.94" y="-243.75" font-family="Arial" font-size="10.00">1</text>
</g>
<!-- attempts&#45;&gt;attempt_resolutions -->
<g id="edge5" class="edge">
<title>attempts&#45;&gt;attempt_resolutions</title>
<path fill="none" stroke="#668076" d="M683.2,-184.21C711.24,-170.25 742.31,-154.78 770.36,-140.82"/>
<text text-anchor="middle" x="760.39" y="-149.84" font-family="Arial" font-size="10.00">0..1</text>
<text text-anchor="middle" x="693.17" y="-168.2" font-family="Arial" font-size="10.00">1</text>
</g>
<!-- participants -->
<g id="node5" class="node">
<title>participants</title>
<polygon fill="#63716b" stroke="none" points="249.62,-244.38 249.62,-278.12 414.62,-278.12 414.62,-244.38 249.62,-244.38"/>
<polygon fill="none" stroke="#cddad4" points="249.62,-244.38 249.62,-278.12 414.62,-278.12 414.62,-244.38 249.62,-244.38"/>
<text text-anchor="start" x="293.88" y="-256.82" font-family="Arial" font-weight="bold" font-size="14.00" fill="white">participants</text>
<polygon fill="none" stroke="#cddad4" points="249.62,-210.62 249.62,-244.38 414.62,-244.38 414.62,-210.62 249.62,-210.62"/>
<text text-anchor="start" x="258.62" y="-222.07" font-family="Arial" font-size="14.00">PK: id</text>
<polygon fill="none" stroke="#cddad4" points="249.62,-176.88 249.62,-210.62 414.62,-210.62 414.62,-176.88 249.62,-176.88"/>
<text text-anchor="start" x="258.62" y="-188.32" font-family="Arial" font-size="14.00" fill="#63716b">referencia a otro módulo</text>
</g>
<!-- participants&#45;&gt;attempts -->
<g id="edge1" class="edge">
<title>participants&#45;&gt;attempts</title>
<path fill="none" stroke="#668076" d="M414.32,-227.5C443.81,-227.5 477.24,-227.5 507.22,-227.5"/>
<text text-anchor="middle" x="492.72" y="-230.76" font-family="Arial" font-size="10.00">0..N</text>
<text text-anchor="middle" x="428.82" y="-217.24" font-family="Arial" font-size="10.00">1</text>
</g>
<!-- participants&#45;&gt;powerup_uses -->
<g id="edge10" class="edge">
<title>participants&#45;&gt;powerup_uses</title>
<path fill="none" stroke="#668076" d="M372.71,-176.99C421.84,-114.28 499.25,-15.5 499.25,-15.5 499.25,-15.5 946.5,-15.5 946.5,-15.5 946.5,-15.5 985.48,-27.7 1025.67,-40.28"/>
<text text-anchor="middle" x="1009.81" y="-38.9" font-family="Arial" font-size="10.00">0..N</text>
<text text-anchor="middle" x="376.33" y="-157.91" font-family="Arial" font-size="10.00">1</text>
</g>
<!-- team_members -->
<g id="node10" class="node">
<title>team_members</title>
<polygon fill="#087f5b" stroke="none" points="507.12,-555.25 507.12,-589 683.38,-589 683.38,-555.25 507.12,-555.25"/>
<polygon fill="none" stroke="#cddad4" points="507.12,-555.25 507.12,-589 683.38,-589 683.38,-555.25 507.12,-555.25"/>
<text text-anchor="start" x="544.62" y="-567.7" font-family="Arial" font-weight="bold" font-size="14.00" fill="white">team_members</text>
<polygon fill="none" stroke="#cddad4" points="507.12,-521.5 507.12,-555.25 683.38,-555.25 683.38,-521.5 507.12,-521.5"/>
<text text-anchor="start" x="516.12" y="-532.95" font-family="Arial" font-size="14.00">PK: participant_id</text>
<polygon fill="none" stroke="#cddad4" points="507.12,-487.75 507.12,-521.5 683.38,-521.5 683.38,-487.75 507.12,-487.75"/>
<text text-anchor="start" x="516.12" y="-499.2" font-family="Arial" font-size="14.00">FK team_id</text>
<polygon fill="none" stroke="#cddad4" points="507.12,-454 507.12,-487.75 683.38,-487.75 683.38,-454 507.12,-454"/>
<text text-anchor="start" x="516.12" y="-465.45" font-family="Arial" font-size="14.00" fill="#63716b">2 campos · ver diccionario</text>
</g>
<!-- participants&#45;&gt;team_members -->
<g id="edge8" class="edge">
<title>participants&#45;&gt;team_members</title>
<path fill="none" stroke="#668076" d="M372.71,-278.01C421.84,-340.72 499.25,-439.5 499.25,-439.5 499.25,-439.5 506.15,-445.46 516.23,-454.16"/>
<text text-anchor="middle" x="500.84" y="-446.3" font-family="Arial" font-size="10.00">0..1</text>
<text text-anchor="middle" x="386.97" y="-281.75" font-family="Arial" font-size="10.00">1</text>
</g>
<!-- profiles -->
<g id="node7" class="node">
<title>profiles</title>
<polygon fill="#63716b" stroke="none" points="512.75,-97.38 512.75,-131.12 677.75,-131.12 677.75,-97.38 512.75,-97.38"/>
<polygon fill="none" stroke="#cddad4" points="512.75,-97.38 512.75,-131.12 677.75,-131.12 677.75,-97.38 512.75,-97.38"/>
<text text-anchor="start" x="570.88" y="-109.83" font-family="Arial" font-weight="bold" font-size="14.00" fill="white">profiles</text>
<polygon fill="none" stroke="#cddad4" points="512.75,-63.62 512.75,-97.38 677.75,-97.38 677.75,-63.62 512.75,-63.62"/>
<text text-anchor="start" x="521.75" y="-75.08" font-family="Arial" font-size="14.00">PK: id</text>
<polygon fill="none" stroke="#cddad4" points="512.75,-29.88 512.75,-63.62 677.75,-63.62 677.75,-29.88 512.75,-29.88"/>
<text text-anchor="start" x="521.75" y="-41.33" font-family="Arial" font-size="14.00" fill="#63716b">referencia a otro módulo</text>
</g>
<!-- profiles&#45;&gt;attempt_resolutions -->
<g id="edge6" class="edge">
<title>profiles&#45;&gt;attempt_resolutions</title>
<path fill="none" stroke="#668076" d="M677.44,-85.79C706.93,-87.71 740.37,-89.88 770.35,-91.83"/>
<text text-anchor="middle" x="755.44" y="-94.14" font-family="Arial" font-size="10.00">0..N</text>
<text text-anchor="middle" x="692.35" y="-76.48" font-family="Arial" font-size="10.00">1</text>
</g>
<!-- questions -->
<g id="node8" class="node">
<title>questions</title>
<polygon fill="#63716b" stroke="none" points="499.25,-391.38 499.25,-425.12 691.25,-425.12 691.25,-391.38 499.25,-391.38"/>
<polygon fill="none" stroke="#cddad4" points="499.25,-391.38 499.25,-425.12 691.25,-425.12 691.25,-391.38 499.25,-391.38"/>
<text text-anchor="start" x="563.38" y="-403.82" font-family="Arial" font-weight="bold" font-size="14.00" fill="white">questions</text>
<polygon fill="none" stroke="#cddad4" points="499.25,-357.62 499.25,-391.38 691.25,-391.38 691.25,-357.62 499.25,-357.62"/>
<text text-anchor="start" x="508.25" y="-369.07" font-family="Arial" font-size="14.00">PK: version_id, question_key</text>
<polygon fill="none" stroke="#cddad4" points="499.25,-323.88 499.25,-357.62 691.25,-357.62 691.25,-323.88 499.25,-323.88"/>
<text text-anchor="start" x="521.75" y="-335.32" font-family="Arial" font-size="14.00" fill="#63716b">referencia a otro módulo</text>
</g>
<!-- questions&#45;&gt;attempt_questions -->
<g id="edge3" class="edge">
<title>questions&#45;&gt;attempt_questions</title>
<path fill="none" stroke="#668076" d="M690.89,-345.87C716.87,-338.01 744.91,-329.53 770.43,-321.8"/>
<text text-anchor="middle" x="758.51" y="-328.97" font-family="Arial" font-size="10.00">0..N</text>
<text text-anchor="middle" x="702.81" y="-331.7" font-family="Arial" font-size="10.00">1</text>
</g>
<!-- teams&#45;&gt;team_members -->
<g id="edge9" class="edge">
<title>teams&#45;&gt;team_members</title>
<path fill="none" stroke="#668076" d="M420.08,-521.5C448.12,-521.5 479.19,-521.5 507.23,-521.5"/>
<text text-anchor="middle" x="492.73" y="-524.76" font-family="Arial" font-size="10.00">0..N</text>
<text text-anchor="middle" x="434.58" y="-511.24" font-family="Arial" font-size="10.00">1</text>
</g>
</g>
</svg>
