<?xml version="1.0" encoding="UTF-8" standalone="no"?>
<!DOCTYPE svg PUBLIC "-//W3C//DTD SVG 1.1//EN"
 "http://www.w3.org/Graphics/SVG/1.1/DTD/svg11.dtd">
<!-- Generated by graphviz version 12.2.1 (20241206.2353)
 -->
<!-- Title: Estados Pages: 1 -->
<svg width="1181pt" height="897pt"
 viewBox="0.00 0.00 1180.76 896.60" xmlns="http://www.w3.org/2000/svg" xmlns:xlink="http://www.w3.org/1999/xlink">
<g id="graph0" class="graph" transform="scale(1 1) rotate(0) translate(28.8 867.8)">
<title>Estados</title>
<polygon fill="white" stroke="none" points="-28.8,28.8 -28.8,-867.8 1151.96,-867.8 1151.96,28.8 -28.8,28.8"/>
<text text-anchor="middle" x="561.58" y="-814.1" font-family="Arial" font-size="22.00">Aulify · estados independientes</text>
<text text-anchor="middle" x="561.58" y="-788.6" font-family="Arial" font-size="22.00">Cerrar un intento no equivale a publicar una nota</text>
<g id="clust1" class="cluster">
<title>cluster_recurso</title>
<polygon fill="white" stroke="#caddd2" points="8,-8 8,-191 508.08,-191 508.08,-8 8,-8"/>
<text text-anchor="middle" x="258.04" y="-166.1" font-family="Arial" font-size="22.00">RECURSO</text>
</g>
<g id="clust2" class="cluster">
<title>cluster_actividad</title>
<polygon fill="white" stroke="#caddd2" points="52.62,-199 52.62,-369 1080.66,-369 1080.66,-199 52.62,-199"/>
<text text-anchor="middle" x="566.64" y="-344.1" font-family="Arial" font-size="22.00">ACTIVIDAD · estado derivado de publicación y fechas</text>
</g>
<g id="clust3" class="cluster">
<title>cluster_intento</title>
<polygon fill="white" stroke="#caddd2" points="52.25,-377 52.25,-560 834.12,-560 834.12,-377 52.25,-377"/>
<text text-anchor="middle" x="443.18" y="-535.1" font-family="Arial" font-size="22.00">INTENTO</text>
</g>
<g id="clust4" class="cluster">
<title>cluster_correccion</title>
<polygon fill="white" stroke="#caddd2" points="16.62,-568 16.62,-666 829.62,-666 829.62,-568 16.62,-568"/>
<text text-anchor="middle" x="423.12" y="-641.1" font-family="Arial" font-size="22.00">CORRECCIÓN DE PREGUNTA</text>
</g>
<g id="clust5" class="cluster">
<title>cluster_publicacion</title>
<polygon fill="white" stroke="#caddd2" points="26,-674 26,-772 1115.16,-772 1115.16,-674 26,-674"/>
<text text-anchor="middle" x="570.58" y="-747.1" font-family="Arial" font-size="22.00">EVALUACIÓN DEL ESTUDIANTE</text>
</g>
<!-- borrador -->
<g id="node1" class="node">
<title>borrador</title>
<path fill="#f1f8f4" stroke="#9ebcae" d="M162.79,-102.33C162.79,-102.33 28,-102.33 28,-102.33 22,-102.33 16,-96.33 16,-90.33 16,-90.33 16,-65.67 16,-65.67 16,-59.67 22,-53.67 28,-53.67 28,-53.67 162.79,-53.67 162.79,-53.67 168.79,-53.67 174.79,-59.67 174.79,-65.67 174.79,-65.67 174.79,-90.33 174.79,-90.33 174.79,-96.33 168.79,-102.33 162.79,-102.33"/>
<text text-anchor="middle" x="95.39" y="-80.85" font-family="Arial" font-size="12.00">Borrador mutable</text>
<text text-anchor="middle" x="95.39" y="-66.6" font-family="Arial" font-size="12.00">Revisión de concurrencia</text>
</g>
<!-- borrador&#45;&gt;borrador -->
<g id="edge1" class="edge">
<title>borrador&#45;&gt;borrador</title>
<path fill="none" stroke="#617a6d" d="M68.68,-102.79C59.99,-120.59 68.89,-138.33 95.39,-138.33 116.52,-138.33 126.46,-127.07 125.23,-113.48"/>
<polygon fill="#617a6d" stroke="#617a6d" points="128.69,-112.86 122.53,-104.24 121.97,-114.82 128.69,-112.86"/>
<text text-anchor="middle" x="95.39" y="-140.83" font-family="Arial" font-size="10.00">guardar</text>
</g>
<!-- version1 -->
<g id="node2" class="node">
<title>version1</title>
<path fill="#f1f8f4" stroke="#9ebcae" d="M488.08,-64.33C488.08,-64.33 383.29,-64.33 383.29,-64.33 377.29,-64.33 371.29,-58.33 371.29,-52.33 371.29,-52.33 371.29,-27.67 371.29,-27.67 371.29,-21.67 377.29,-15.67 383.29,-15.67 383.29,-15.67 488.08,-15.67 488.08,-15.67 494.08,-15.67 500.08,-21.67 500.08,-27.67 500.08,-27.67 500.08,-52.33 500.08,-52.33 500.08,-58.33 494.08,-64.33 488.08,-64.33"/>
<text text-anchor="middle" x="435.68" y="-42.85" font-family="Arial" font-size="12.00">Versión publicada 1</text>
<text text-anchor="middle" x="435.68" y="-28.6" font-family="Arial" font-size="12.00">Inmutable</text>
</g>
<!-- borrador&#45;&gt;version1 -->
<g id="edge2" class="edge">
<title>borrador&#45;&gt;version1</title>
<path fill="none" stroke="#617a6d" d="M175.19,-66.41C184.16,-65.2 193.17,-64.04 201.79,-63 254.41,-56.66 313.87,-50.81 359.54,-46.6"/>
<polygon fill="#617a6d" stroke="#617a6d" points="359.7,-50.1 369.34,-45.7 359.06,-43.13 359.7,-50.1"/>
<text text-anchor="middle" x="255.04" y="-65.5" font-family="Arial" font-size="10.00">publicar</text>
</g>
<!-- version2 -->
<g id="node3" class="node">
<title>version2</title>
<path fill="#f1f8f4" stroke="#9ebcae" d="M488.08,-149.33C488.08,-149.33 383.29,-149.33 383.29,-149.33 377.29,-149.33 371.29,-143.33 371.29,-137.33 371.29,-137.33 371.29,-112.67 371.29,-112.67 371.29,-106.67 377.29,-100.67 383.29,-100.67 383.29,-100.67 488.08,-100.67 488.08,-100.67 494.08,-100.67 500.08,-106.67 500.08,-112.67 500.08,-112.67 500.08,-137.33 500.08,-137.33 500.08,-143.33 494.08,-149.33 488.08,-149.33"/>
<text text-anchor="middle" x="435.68" y="-127.85" font-family="Arial" font-size="12.00">Versión publicada 2</text>
<text text-anchor="middle" x="435.68" y="-113.6" font-family="Arial" font-size="12.00">Inmutable</text>
</g>
<!-- borrador&#45;&gt;version2 -->
<g id="edge3" class="edge">
<title>borrador&#45;&gt;version2</title>
<path fill="none" stroke="#617a6d" d="M175.28,-88.96C230.88,-96.68 304.87,-106.96 359.59,-114.57"/>
<polygon fill="#617a6d" stroke="#617a6d" points="359.08,-118.03 369.47,-115.94 360.05,-111.1 359.08,-118.03"/>
<text text-anchor="middle" x="255.04" y="-109.59" font-family="Arial" font-size="10.00">editar y volver a publicar</text>
</g>
<!-- ab -->
<g id="node4" class="node">
<title>ab</title>
<path fill="#f1f8f4" stroke="#9ebcae" d="M118.16,-307C118.16,-307 72.62,-307 72.62,-307 66.62,-307 60.62,-301 60.62,-295 60.62,-295 60.62,-283 60.62,-283 60.62,-277 66.62,-271 72.62,-271 72.62,-271 118.16,-271 118.16,-271 124.16,-271 130.16,-277 130.16,-283 130.16,-283 130.16,-295 130.16,-295 130.16,-301 124.16,-307 118.16,-307"/>
<text text-anchor="middle" x="95.39" y="-284.73" font-family="Arial" font-size="12.00">Borrador</text>
</g>
<!-- ap -->
<g id="node5" class="node">
<title>ap</title>
<path fill="#f1f8f4" stroke="#9ebcae" d="M468.2,-243C468.2,-243 403.16,-243 403.16,-243 397.16,-243 391.16,-237 391.16,-231 391.16,-231 391.16,-219 391.16,-219 391.16,-213 397.16,-207 403.16,-207 403.16,-207 468.2,-207 468.2,-207 474.2,-207 480.2,-213 480.2,-219 480.2,-219 480.2,-231 480.2,-231 480.2,-237 474.2,-243 468.2,-243"/>
<text text-anchor="middle" x="435.68" y="-220.72" font-family="Arial" font-size="12.00">Programada</text>
</g>
<!-- ab&#45;&gt;ap -->
<g id="edge4" class="edge">
<title>ab&#45;&gt;ap</title>
<path fill="none" stroke="#617a6d" d="M130.38,-282.57C188.87,-271.51 309.05,-248.77 379.62,-235.42"/>
<polygon fill="#617a6d" stroke="#617a6d" points="380.26,-238.86 389.44,-233.56 378.96,-231.98 380.26,-238.86"/>
<text text-anchor="middle" x="255.04" y="-270.8" font-family="Arial" font-size="10.00">publicar para después</text>
</g>
<!-- aa -->
<g id="node6" class="node">
<title>aa</title>
<path fill="#f1f8f4" stroke="#9ebcae" d="M772.49,-307C772.49,-307 735.2,-307 735.2,-307 729.2,-307 723.2,-301 723.2,-295 723.2,-295 723.2,-283 723.2,-283 723.2,-277 729.2,-271 735.2,-271 735.2,-271 772.49,-271 772.49,-271 778.49,-271 784.49,-277 784.49,-283 784.49,-283 784.49,-295 784.49,-295 784.49,-301 778.49,-307 772.49,-307"/>
<text text-anchor="middle" x="753.85" y="-284.73" font-family="Arial" font-size="12.00">Abierta</text>
</g>
<!-- ab&#45;&gt;aa -->
<g id="edge5" class="edge">
<title>ab&#45;&gt;aa</title>
<path fill="none" stroke="#617a6d" d="M130.31,-289C240.96,-289 591.29,-289 711.72,-289"/>
<polygon fill="#617a6d" stroke="#617a6d" points="711.45,-292.5 721.45,-289 711.45,-285.5 711.45,-292.5"/>
<text text-anchor="middle" x="435.68" y="-291.5" font-family="Arial" font-size="10.00">publicar ahora</text>
</g>
<!-- ap&#45;&gt;aa -->
<g id="edge6" class="edge">
<title>ap&#45;&gt;aa</title>
<path fill="none" stroke="#617a6d" d="M480.65,-233.9C541.89,-246.3 652.06,-268.6 711.74,-280.68"/>
<polygon fill="#617a6d" stroke="#617a6d" points="710.99,-284.1 721.49,-282.65 712.38,-277.24 710.99,-284.1"/>
<text text-anchor="middle" x="604.7" y="-268.97" font-family="Arial" font-size="10.00">apertura servidor</text>
</g>
<!-- ac -->
<g id="node7" class="node">
<title>ac</title>
<path fill="#f1f8f4" stroke="#9ebcae" d="M1060.66,-307C1060.66,-307 1018.12,-307 1018.12,-307 1012.12,-307 1006.12,-301 1006.12,-295 1006.12,-295 1006.12,-283 1006.12,-283 1006.12,-277 1012.12,-271 1018.12,-271 1018.12,-271 1060.66,-271 1060.66,-271 1066.66,-271 1072.66,-277 1072.66,-283 1072.66,-283 1072.66,-295 1072.66,-295 1072.66,-301 1066.66,-307 1060.66,-307"/>
<text text-anchor="middle" x="1039.39" y="-284.73" font-family="Arial" font-size="12.00">Cerrada</text>
</g>
<!-- aa&#45;&gt;ac -->
<g id="edge7" class="edge">
<title>aa&#45;&gt;ac</title>
<path fill="none" stroke="#617a6d" d="M784.93,-289C835.19,-289 936.48,-289 994.65,-289"/>
<polygon fill="#617a6d" stroke="#617a6d" points="994.51,-292.5 1004.51,-289 994.51,-285.5 994.51,-292.5"/>
<text text-anchor="middle" x="902.99" y="-291.5" font-family="Arial" font-size="10.00">plazo o finalización</text>
</g>
<!-- curso -->
<g id="node8" class="node">
<title>curso</title>
<path fill="#f1f8f4" stroke="#9ebcae" d="M118.54,-469C118.54,-469 72.25,-469 72.25,-469 66.25,-469 60.25,-463 60.25,-457 60.25,-457 60.25,-445 60.25,-445 60.25,-439 66.25,-433 72.25,-433 72.25,-433 118.54,-433 118.54,-433 124.54,-433 130.54,-439 130.54,-445 130.54,-445 130.54,-457 130.54,-457 130.54,-463 124.54,-469 118.54,-469"/>
<text text-anchor="middle" x="95.39" y="-446.73" font-family="Arial" font-size="12.00">En curso</text>
</g>
<!-- cerrado -->
<g id="node9" class="node">
<title>cerrado</title>
<path fill="#f1f8f4" stroke="#9ebcae" d="M492.58,-433.33C492.58,-433.33 378.79,-433.33 378.79,-433.33 372.79,-433.33 366.79,-427.33 366.79,-421.33 366.79,-421.33 366.79,-396.67 366.79,-396.67 366.79,-390.67 372.79,-384.67 378.79,-384.67 378.79,-384.67 492.58,-384.67 492.58,-384.67 498.58,-384.67 504.58,-390.67 504.58,-396.67 504.58,-396.67 504.58,-421.33 504.58,-421.33 504.58,-427.33 498.58,-433.33 492.58,-433.33"/>
<text text-anchor="middle" x="435.68" y="-411.85" font-family="Arial" font-size="12.00">Cerrado</text>
<text text-anchor="middle" x="435.68" y="-397.6" font-family="Arial" font-size="12.00">Envío / guiado / plazo</text>
</g>
<!-- curso&#45;&gt;cerrado -->
<g id="edge8" class="edge">
<title>curso&#45;&gt;cerrado</title>
<path fill="none" stroke="#617a6d" d="M131.01,-446.7C183.44,-440.19 284.4,-427.66 355.48,-418.83"/>
<polygon fill="#617a6d" stroke="#617a6d" points="355.62,-422.34 365.11,-417.64 354.76,-415.4 355.62,-422.34"/>
</g>
<!-- admin -->
<g id="node10" class="node">
<title>admin</title>
<path fill="#f1f8f4" stroke="#9ebcae" d="M524.08,-518.33C524.08,-518.33 347.29,-518.33 347.29,-518.33 341.29,-518.33 335.29,-512.33 335.29,-506.33 335.29,-506.33 335.29,-481.67 335.29,-481.67 335.29,-475.67 341.29,-469.67 347.29,-469.67 347.29,-469.67 524.08,-469.67 524.08,-469.67 530.08,-469.67 536.08,-475.67 536.08,-481.67 536.08,-481.67 536.08,-506.33 536.08,-506.33 536.08,-512.33 530.08,-518.33 524.08,-518.33"/>
<text text-anchor="middle" x="435.68" y="-496.85" font-family="Arial" font-size="12.00">Cerrado administrativo</text>
<text text-anchor="middle" x="435.68" y="-482.6" font-family="Arial" font-size="12.00">Retiro / archivo / cierre anticipado</text>
</g>
<!-- curso&#45;&gt;admin -->
<g id="edge9" class="edge">
<title>curso&#45;&gt;admin</title>
<path fill="none" stroke="#617a6d" d="M131.01,-455.4C176.07,-461.13 256.99,-471.41 323.97,-479.93"/>
<polygon fill="#617a6d" stroke="#617a6d" points="323.15,-483.35 333.51,-481.14 324.03,-476.41 323.15,-483.35"/>
</g>
<!-- resolver -->
<g id="node11" class="node">
<title>resolver</title>
<path fill="#f1f8f4" stroke="#9ebcae" d="M814.12,-518.33C814.12,-518.33 693.58,-518.33 693.58,-518.33 687.58,-518.33 681.58,-512.33 681.58,-506.33 681.58,-506.33 681.58,-481.67 681.58,-481.67 681.58,-475.67 687.58,-469.67 693.58,-469.67 693.58,-469.67 814.12,-469.67 814.12,-469.67 820.12,-469.67 826.12,-475.67 826.12,-481.67 826.12,-481.67 826.12,-506.33 826.12,-506.33 826.12,-512.33 820.12,-518.33 814.12,-518.33"/>
<text text-anchor="middle" x="753.85" y="-496.85" font-family="Arial" font-size="12.00">Resolución con motivo</text>
<text text-anchor="middle" x="753.85" y="-482.6" font-family="Arial" font-size="12.00">Evaluar o excluir</text>
</g>
<!-- admin&#45;&gt;resolver -->
<g id="edge10" class="edge">
<title>admin&#45;&gt;resolver</title>
<path fill="none" stroke="#617a6d" d="M536.29,-494C579.3,-494 629.05,-494 670,-494"/>
<polygon fill="#617a6d" stroke="#617a6d" points="669.79,-497.5 679.79,-494 669.79,-490.5 669.79,-497.5"/>
</g>
<!-- pendiente -->
<g id="node12" class="node">
<title>pendiente</title>
<path fill="#f1f8f4" stroke="#9ebcae" d="M154.16,-624.33C154.16,-624.33 36.62,-624.33 36.62,-624.33 30.62,-624.33 24.62,-618.33 24.62,-612.33 24.62,-612.33 24.62,-587.67 24.62,-587.67 24.62,-581.67 30.62,-575.67 36.62,-575.67 36.62,-575.67 154.16,-575.67 154.16,-575.67 160.16,-575.67 166.16,-581.67 166.16,-587.67 166.16,-587.67 166.16,-612.33 166.16,-612.33 166.16,-618.33 160.16,-624.33 154.16,-624.33"/>
<text text-anchor="middle" x="95.39" y="-602.85" font-family="Arial" font-size="12.00">Pendiente</text>
<text text-anchor="middle" x="95.39" y="-588.6" font-family="Arial" font-size="12.00">Sin revisión de puntos</text>
</g>
<!-- corregida -->
<g id="node13" class="node">
<title>corregida</title>
<path fill="#f1f8f4" stroke="#9ebcae" d="M491.45,-624.33C491.45,-624.33 379.91,-624.33 379.91,-624.33 373.91,-624.33 367.91,-618.33 367.91,-612.33 367.91,-612.33 367.91,-587.67 367.91,-587.67 367.91,-581.67 373.91,-575.67 379.91,-575.67 379.91,-575.67 491.45,-575.67 491.45,-575.67 497.45,-575.67 503.45,-581.67 503.45,-587.67 503.45,-587.67 503.45,-612.33 503.45,-612.33 503.45,-618.33 497.45,-624.33 491.45,-624.33"/>
<text text-anchor="middle" x="435.68" y="-602.85" font-family="Arial" font-size="12.00">Revisión de puntos 1</text>
<text text-anchor="middle" x="435.68" y="-588.6" font-family="Arial" font-size="12.00">Completa</text>
</g>
<!-- pendiente&#45;&gt;corregida -->
<g id="edge11" class="edge">
<title>pendiente&#45;&gt;corregida</title>
<path fill="none" stroke="#617a6d" d="M166.49,-600C221.83,-600 299,-600 356.37,-600"/>
<polygon fill="#617a6d" stroke="#617a6d" points="356.05,-603.5 366.05,-600 356.05,-596.5 356.05,-603.5"/>
<text text-anchor="middle" x="255.04" y="-602.5" font-family="Arial" font-size="10.00">corregir</text>
</g>
<!-- revisada -->
<g id="node14" class="node">
<title>revisada</title>
<path fill="#f1f8f4" stroke="#9ebcae" d="M809.62,-624.33C809.62,-624.33 698.08,-624.33 698.08,-624.33 692.08,-624.33 686.08,-618.33 686.08,-612.33 686.08,-612.33 686.08,-587.67 686.08,-587.67 686.08,-581.67 692.08,-575.67 698.08,-575.67 698.08,-575.67 809.62,-575.67 809.62,-575.67 815.62,-575.67 821.62,-581.67 821.62,-587.67 821.62,-587.67 821.62,-612.33 821.62,-612.33 821.62,-618.33 815.62,-624.33 809.62,-624.33"/>
<text text-anchor="middle" x="753.85" y="-602.85" font-family="Arial" font-size="12.00">Revisión de puntos 2</text>
<text text-anchor="middle" x="753.85" y="-588.6" font-family="Arial" font-size="12.00">Anterior conservada</text>
</g>
<!-- corregida&#45;&gt;revisada -->
<g id="edge12" class="edge">
<title>corregida&#45;&gt;revisada</title>
<path fill="none" stroke="#617a6d" d="M503.74,-600C553.64,-600 621.9,-600 674.35,-600"/>
<polygon fill="#617a6d" stroke="#617a6d" points="674.11,-603.5 684.11,-600 674.11,-596.5 674.11,-603.5"/>
<text text-anchor="middle" x="604.7" y="-602.5" font-family="Arial" font-size="10.00">corregir con motivo</text>
</g>
<!-- privada -->
<g id="node15" class="node">
<title>privada</title>
<path fill="#f1f8f4" stroke="#9ebcae" d="M144.79,-730C144.79,-730 46,-730 46,-730 40,-730 34,-724 34,-718 34,-718 34,-706 34,-706 34,-700 40,-694 46,-694 46,-694 144.79,-694 144.79,-694 150.79,-694 156.79,-700 156.79,-706 156.79,-706 156.79,-718 156.79,-718 156.79,-724 150.79,-730 144.79,-730"/>
<text text-anchor="middle" x="95.39" y="-707.73" font-family="Arial" font-size="12.00">Revisión privada 1</text>
</g>
<!-- publicada -->
<g id="node16" class="node">
<title>publicada</title>
<path fill="#f1f8f4" stroke="#9ebcae" d="M491.83,-730.33C491.83,-730.33 379.54,-730.33 379.54,-730.33 373.54,-730.33 367.54,-724.33 367.54,-718.33 367.54,-718.33 367.54,-693.67 367.54,-693.67 367.54,-687.67 373.54,-681.67 379.54,-681.67 379.54,-681.67 491.83,-681.67 491.83,-681.67 497.83,-681.67 503.83,-687.67 503.83,-693.67 503.83,-693.67 503.83,-718.33 503.83,-718.33 503.83,-724.33 497.83,-730.33 491.83,-730.33"/>
<text text-anchor="middle" x="435.68" y="-708.85" font-family="Arial" font-size="12.00">Revisión publicada 1</text>
<text text-anchor="middle" x="435.68" y="-694.6" font-family="Arial" font-size="12.00">Visible según política</text>
</g>
<!-- privada&#45;&gt;publicada -->
<g id="edge13" class="edge">
<title>privada&#45;&gt;publicada</title>
<path fill="none" stroke="#617a6d" d="M157.27,-710.92C212.75,-709.94 295.06,-708.48 355.62,-707.4"/>
<polygon fill="#617a6d" stroke="#617a6d" points="355.6,-710.9 365.53,-707.23 355.47,-703.9 355.6,-710.9"/>
<text text-anchor="middle" x="255.04" y="-712.56" font-family="Arial" font-size="10.00">publicar</text>
</g>
<!-- nueva -->
<g id="node17" class="node">
<title>nueva</title>
<path fill="#f1f8f4" stroke="#9ebcae" d="M822.37,-730.33C822.37,-730.33 685.33,-730.33 685.33,-730.33 679.33,-730.33 673.33,-724.33 673.33,-718.33 673.33,-718.33 673.33,-693.67 673.33,-693.67 673.33,-687.67 679.33,-681.67 685.33,-681.67 685.33,-681.67 822.37,-681.67 822.37,-681.67 828.37,-681.67 834.37,-687.67 834.37,-693.67 834.37,-693.67 834.37,-718.33 834.37,-718.33 834.37,-724.33 828.37,-730.33 822.37,-730.33"/>
<text text-anchor="middle" x="753.85" y="-708.85" font-family="Arial" font-size="12.00">Revisión privada 2</text>
<text text-anchor="middle" x="753.85" y="-694.6" font-family="Arial" font-size="12.00">Publicada 1 sigue vigente</text>
</g>
<!-- publicada&#45;&gt;nueva -->
<g id="edge14" class="edge">
<title>publicada&#45;&gt;nueva</title>
<path fill="none" stroke="#617a6d" d="M504.12,-706C550.07,-706 611.44,-706 661.73,-706"/>
<polygon fill="#617a6d" stroke="#617a6d" points="661.42,-709.5 671.42,-706 661.42,-702.5 661.42,-709.5"/>
<text text-anchor="middle" x="604.7" y="-708.5" font-family="Arial" font-size="10.00">preparar corrección</text>
</g>
<!-- publicada2 -->
<g id="node18" class="node">
<title>publicada2</title>
<path fill="#f1f8f4" stroke="#9ebcae" d="M1095.16,-730.33C1095.16,-730.33 983.62,-730.33 983.62,-730.33 977.62,-730.33 971.62,-724.33 971.62,-718.33 971.62,-718.33 971.62,-693.67 971.62,-693.67 971.62,-687.67 977.62,-681.67 983.62,-681.67 983.62,-681.67 1095.16,-681.67 1095.16,-681.67 1101.16,-681.67 1107.16,-687.67 1107.16,-693.67 1107.16,-693.67 1107.16,-718.33 1107.16,-718.33 1107.16,-724.33 1101.16,-730.33 1095.16,-730.33"/>
<text text-anchor="middle" x="1039.39" y="-708.85" font-family="Arial" font-size="12.00">Revisión publicada 2</text>
<text text-anchor="middle" x="1039.39" y="-694.6" font-family="Arial" font-size="12.00">Historial conservado</text>
</g>
<!-- nueva&#45;&gt;publicada2 -->
<g id="edge15" class="edge">
<title>nueva&#45;&gt;publicada2</title>
<path fill="none" stroke="#617a6d" d="M834.59,-706C873.79,-706 920.89,-706 959.92,-706"/>
<polygon fill="#617a6d" stroke="#617a6d" points="959.72,-709.5 969.72,-706 959.72,-702.5 959.72,-709.5"/>
<text text-anchor="middle" x="902.99" y="-708.5" font-family="Arial" font-size="10.00">republicar</text>
</g>
</g>
</svg>
